<?xml version="1.0" standalone="no"?>
<!DOCTYPE svg PUBLIC "-//W3C//DTD SVG 20010904//EN"
 "http://www.w3.org/TR/2001/REC-SVG-20010904/DTD/svg10.dtd">
<svg version="1.0" xmlns="http://www.w3.org/2000/svg"
 width="700.000000pt" height="700.000000pt" viewBox="0 0 700.000000 700.000000"
 preserveAspectRatio="xMidYMid meet">
<metadata>
Created by potrace 1.14, written by Peter Selinger 2001-2017
</metadata>
<g transform="translate(0.000000,700.000000) scale(0.100000,-0.100000)"
fill="#000000" stroke="none">
<path d="M609 6996 c-3 -3 -23 -8 -46 -10 -49 -7 -141 -40 -203 -74 -175 -96
-311 -285 -349 -483 -7 -36 -10 -1026 -11 -2927 0 -3182 -5 -2948 64 -3097 69
-148 184 -264 331 -335 158 -76 -114 -70 3130 -67 l2910 2 61 21 c219 76 373
217 452 414 53 131 52 100 51 1310 -1 955 -3 1135 -16 1194 -43 205 -170 374
-355 474 -62 33 -173 70 -225 74 -35 2 -35 18 0 18 75 0 244 72 327 138 118
95 210 232 245 367 5 17 11 37 14 45 3 8 6 533 8 1165 3 1221 4 1193 -45 1327
-22 63 -92 175 -143 229 -87 92 -209 163 -339 198 -73 20 -99 20 -1235 18
-638 -1 -1169 -5 -1180 -9 -141 -44 -208 -76 -280 -132 -126 -99 -218 -238
-251 -381 -23 -101 -26 -105 -35 -50 -19 119 -85 251 -174 347 -89 96 -172
149 -304 196 l-76 27 -1161 3 c-638 1 -1162 0 -1165 -2z m2917 -2981 c42 -159
151 -309 289 -399 70 -45 118 -66 210 -92 l80 -23 -302 0 -303 -1 1 308 c1
169 3 298 5 287 3 -11 12 -47 20 -80z"/>
</g>
</svg>
